<svg xmlns="http://www.w3.org/2000/svg" width="60" height="62" viewBox="0 0 60 62">
    <g fill="#e94d2e" fill-rule="evenodd">
        <path d="M21 11v3a2 2 0 1 0 4 0v-3h12v3a2 2 0 1 0 4 0v-3h5a5 5 0 0 1 5 5v4H11v-4a5 5 0 0 1 5-5h5zm30 11v23a5 5 0 0 1-5 5H16a5 5 0 0 1-5-5V22h40zm-31.06 8a.94.94 0 1 0 0 1.88h22.12a.94.94 0 1 0 0-1.88H19.94zm0 10a.94.94 0 1 0 0 1.88h22.12a.94.94 0 1 0 0-1.88H19.94zM39 6a2 2 0 0 1 2 2v3h-4V8a2 2 0 0 1 2-2zM23 6a2 2 0 0 1 2 2v3h-4V8a2 2 0 0 1 2-2z"/>
    </g>
</svg>
