<svg xmlns="http://www.w3.org/2000/svg" width="60" height="62" viewBox="0 0 60 62">
    <path fill="#e94d2e" fill-rule="evenodd" d="M29.06 12.455V50.03H10c-2.761 0-5-2.238-5-5.009V17.464a5.01 5.01 0 0 1 5-5.01h19.06zm1.88 0H50c2.761 0 5 2.238 5 5.009V45.02a5.01 5.01 0 0 1-5 5.01H30.94V12.454zM12 24.667c0 .522.422.94.942.94h10.116c.515 0 .942-.422.942-.94a.938.938 0 0 0-.942-.94H12.942a.944.944 0 0 0-.942.94zm24 0c0 .522.422.94.942.94h10.116c.515 0 .942-.422.942-.94a.938.938 0 0 0-.942-.94H36.942a.944.944 0 0 0-.942.94zM12 37.818c0 .523.422.94.942.94h10.116c.515 0 .942-.421.942-.94a.938.938 0 0 0-.942-.94H12.942a.944.944 0 0 0-.942.94zm24 0c0 .523.422.94.942.94h10.116c.515 0 .942-.421.942-.94a.938.938 0 0 0-.942-.94H36.942a.944.944 0 0 0-.942.94z"/>
</svg>
