<svg xmlns="http://www.w3.org/2000/svg" width="60" height="62" viewBox="0 0 60 62">
    <g fill="none" fill-rule="evenodd">
        <path fill="#e94d2e" d="M45.913 30.414c-.165.797-.548 1.5-1.153 2.11-.606.608-1.497.991-2.675 1.148a5.726 5.726 0 0 1-2.823-.235c-.9-.312-1.71-.78-2.429-1.406a8.09 8.09 0 0 1-1.792-2.226 7.057 7.057 0 0 1-.859-2.695c-.163-1.563.066-2.742.689-3.54a5.152 5.152 0 0 1 2.355-1.71 5.371 5.371 0 0 1 2.184-.305 6.256 6.256 0 0 1 2.233.563c.72.328 1.382.773 1.988 1.336a7.033 7.033 0 0 1 1.497 2.015c.359.75.62 1.562.785 2.437a6.46 6.46 0 0 1 0 2.508m-9.914 9.398c-.953 1.154-2.001 1.738-3.115 1.738-.048 0-.095-.001-.142-.003-.957-.042-1.71-.505-2.229-.954-.74.634-1.529.957-2.356.957l-.14-.003c-1.784-.078-2.888-1.626-3.008-1.802a.892.892 0 0 1 .28-1.268.989.989 0 0 1 1.327.265c.182.263.807.948 1.495.975.595.02 1.166-.475 1.568-.937-.06-.025-.127-.038-.183-.069-.959-.52-1.701-1.2-2.124-1.978-.279-.512.161-1.085.968-1.25.682-.14 1.408-.215 2.162-.215.753 0 1.48.076 2.162.216.806.164 1.246.737.968 1.249-.424.777-1.164 1.458-2.124 1.978-.045.025-.1.035-.15.056.202.277.81.924 1.478.95.633.022 1.253-.551 1.657-1.04a.99.99 0 0 1 1.346-.151.89.89 0 0 1 .16 1.286m-14.552-6.375c-.9.313-1.84.391-2.822.235-1.178-.157-2.07-.54-2.676-1.149-.603-.609-.988-1.312-1.152-2.109a6.46 6.46 0 0 1 0-2.508 9.748 9.748 0 0 1 .785-2.437 7.033 7.033 0 0 1 1.497-2.015 7.444 7.444 0 0 1 1.987-1.336 6.256 6.256 0 0 1 2.234-.563 5.371 5.371 0 0 1 2.184.305 5.316 5.316 0 0 1 2.38 1.71c.638.798.876 1.977.712 3.54a6.83 6.83 0 0 1-.883 2.695 8.517 8.517 0 0 1-1.816 2.226 7.358 7.358 0 0 1-2.43 1.406M48.231 19.28c1.393-1.06 2.288-2.691 2.288-4.524 0-3.195-2.712-5.785-6.056-5.785-2.14 0-4.017 1.063-5.095 2.665a21.8 21.8 0 0 0-9.105-1.973 21.81 21.81 0 0 0-8.841 1.858c-1.088-1.538-2.93-2.55-5.022-2.55-3.344 0-6.057 2.59-6.057 5.785 0 1.735.805 3.287 2.07 4.347C10.38 22.197 9.2 25.856 9.2 29.779c0 11.11 9.43 20.117 21.064 20.117 11.633 0 21.064-9.006 21.064-20.117 0-3.848-1.133-7.444-3.096-10.5"/>
        <path fill="#FFF" fill-opacity="0" d="M0 1h60v60H0z"/>
    </g>
</svg>
